<mxfile host="app.diagrams.net" modified="2020-12-18T08:13:49.829Z" agent="5.0 (Macintosh; Intel Mac OS X 10_15_6) AppleWebKit/605.1.15 (KHTML, like Gecko) Version/14.0.2 Safari/605.1.15" etag="IqTgh3M88Nd5rN_QKAtw" version="14.0.5" type="github">
  <diagram id="_95Hr5ytqPnYlgKhDQPe" name="Page-1">
    <mxGraphModel dx="874" dy="1604" grid="1" gridSize="10" guides="1" tooltips="1" connect="1" arrows="1" fold="1" page="1" pageScale="1" pageWidth="850" pageHeight="1100" math="0" shadow="0">
      <root>
        <mxCell id="0" />
        <mxCell id="1" parent="0" />
        <mxCell id="Pv-lDhROw9vmJ1KCem3l-1" value="" style="shape=image;imageAspect=0;aspect=fixed;verticalLabelPosition=bottom;verticalAlign=top;image=https://s3-us-west-2.amazonaws.com/forge-production.galvanize.com/content/c29d2d8a9a36c1542a5f6c8ee3399291.png;" vertex="1" parent="1">
          <mxGeometry x="20" y="-151.12" width="787.77" height="671.12" as="geometry" />
        </mxCell>
        <mxCell id="Pv-lDhROw9vmJ1KCem3l-2" value="&lt;font style=&quot;font-size: 23px&quot;&gt;&amp;lt;category /&amp;gt;&lt;/font&gt;" style="rounded=0;whiteSpace=wrap;html=1;fillColor=none;strokeWidth=2;strokeColor=#FF0000;" vertex="1" parent="1">
          <mxGeometry x="190" y="-100" width="150" height="150" as="geometry" />
        </mxCell>
        <mxCell id="Pv-lDhROw9vmJ1KCem3l-3" value="&lt;font style=&quot;font-size: 23px&quot;&gt;&amp;lt;category /&amp;gt;&lt;/font&gt;" style="rounded=0;whiteSpace=wrap;html=1;fillColor=none;strokeWidth=2;strokeColor=#FF0000;" vertex="1" parent="1">
          <mxGeometry x="190" y="60" width="150" height="160" as="geometry" />
        </mxCell>
        <mxCell id="Pv-lDhROw9vmJ1KCem3l-4" value="&lt;font style=&quot;font-size: 23px&quot;&gt;&amp;lt;category /&amp;gt;&lt;/font&gt;" style="rounded=0;whiteSpace=wrap;html=1;fillColor=none;strokeWidth=2;strokeColor=#FF0000;" vertex="1" parent="1">
          <mxGeometry x="360" y="-100" width="170" height="160" as="geometry" />
        </mxCell>
        <mxCell id="Pv-lDhROw9vmJ1KCem3l-5" value="&lt;font style=&quot;font-size: 23px&quot;&gt;&amp;lt;category /&amp;gt;&lt;/font&gt;" style="rounded=0;whiteSpace=wrap;html=1;fillColor=none;strokeWidth=2;strokeColor=#FF0000;" vertex="1" parent="1">
          <mxGeometry x="360" y="70" width="170" height="350" as="geometry" />
        </mxCell>
        <mxCell id="Pv-lDhROw9vmJ1KCem3l-6" value="&lt;font style=&quot;font-size: 23px&quot;&gt;&amp;lt;category /&amp;gt;&lt;/font&gt;" style="rounded=0;whiteSpace=wrap;html=1;fillColor=none;strokeWidth=2;strokeColor=#FF0000;" vertex="1" parent="1">
          <mxGeometry x="190" y="230" width="150" height="240" as="geometry" />
        </mxCell>
        <mxCell id="Pv-lDhROw9vmJ1KCem3l-7" value="&lt;font style=&quot;font-size: 23px&quot;&gt;&amp;lt;category /&amp;gt;&lt;/font&gt;" style="rounded=0;whiteSpace=wrap;html=1;fillColor=none;strokeWidth=2;strokeColor=#FF0000;" vertex="1" parent="1">
          <mxGeometry x="540" y="-100" width="110" height="460" as="geometry" />
        </mxCell>
        <mxCell id="Pv-lDhROw9vmJ1KCem3l-8" value="&lt;font style=&quot;font-size: 23px&quot;&gt;&amp;lt;category /&amp;gt;&lt;/font&gt;" style="rounded=0;whiteSpace=wrap;html=1;fillColor=none;strokeWidth=2;strokeColor=#FF0000;" vertex="1" parent="1">
          <mxGeometry x="540" y="370" width="110" height="80" as="geometry" />
        </mxCell>
        <mxCell id="Pv-lDhROw9vmJ1KCem3l-10" value="&lt;font style=&quot;font-size: 23px ; background-color: rgb(255 , 255 , 255)&quot;&gt;&amp;lt;location /&amp;gt;&lt;/font&gt;" style="rounded=0;whiteSpace=wrap;html=1;strokeColor=#3DFFB1;strokeWidth=2;fillColor=none;" vertex="1" parent="1">
          <mxGeometry x="190" y="-151.12" width="460" height="41.12" as="geometry" />
        </mxCell>
        <mxCell id="Pv-lDhROw9vmJ1KCem3l-11" value="&lt;font style=&quot;font-size: 23px&quot;&gt;&amp;lt;cities /&amp;gt;&lt;/font&gt;" style="rounded=0;whiteSpace=wrap;html=1;strokeWidth=2;fillColor=none;strokeColor=#45C7FF;" vertex="1" parent="1">
          <mxGeometry x="670" y="-110" width="80" height="450" as="geometry" />
        </mxCell>
        <mxCell id="Pv-lDhROw9vmJ1KCem3l-12" value="&lt;span style=&quot;background-color: rgb(255 , 255 , 255)&quot;&gt;&lt;font style=&quot;font-size: 15px&quot;&gt;&amp;lt;Language /&amp;gt;&lt;/font&gt;&lt;/span&gt;" style="rounded=0;whiteSpace=wrap;html=1;strokeWidth=2;fillColor=none;strokeColor=#FF9933;" vertex="1" parent="1">
          <mxGeometry x="660" y="-151.12" width="90" height="41.12" as="geometry" />
        </mxCell>
        <mxCell id="Pv-lDhROw9vmJ1KCem3l-14" value="&lt;font style=&quot;font-size: 23px&quot;&gt;&amp;lt;header /&amp;gt;&lt;/font&gt;" style="rounded=0;whiteSpace=wrap;html=1;strokeColor=#FF9933;strokeWidth=2;fillColor=none;" vertex="1" parent="1">
          <mxGeometry x="20" y="-140" width="160" height="220" as="geometry" />
        </mxCell>
        <mxCell id="Pv-lDhROw9vmJ1KCem3l-15" value="&lt;font style=&quot;font-size: 20px&quot;&gt;&amp;lt;calendar /&amp;gt;&lt;/font&gt;" style="rounded=0;whiteSpace=wrap;html=1;strokeWidth=2;fillColor=none;strokeColor=#FF66FF;" vertex="1" parent="1">
          <mxGeometry x="40" y="-20" width="120" height="90" as="geometry" />
        </mxCell>
        <mxCell id="Pv-lDhROw9vmJ1KCem3l-16" value="&lt;font style=&quot;font-size: 26px&quot;&gt;&amp;lt;links /&amp;gt;&lt;/font&gt;" style="rounded=0;whiteSpace=wrap;html=1;strokeWidth=2;fillColor=none;strokeColor=#B266FF;" vertex="1" parent="1">
          <mxGeometry x="40" y="85" width="120" height="255" as="geometry" />
        </mxCell>
      </root>
    </mxGraphModel>
  </diagram>
</mxfile>
